<svg width="80" height="14" viewBox="0 0 80 14" fill="none" xmlns="http://www.w3.org/2000/svg">
<path fill-rule="evenodd" clip-rule="evenodd" d="M66.5524 4.26889L69.2847 9.77545H71.0019C70.7793 10.1482 70.562 10.4225 70.35 10.5986C70.1486 10.7746 69.9154 10.8885 69.6504 10.9402C69.396 10.992 69.0409 11.0179 68.5851 11.0179C67.9597 11.0179 66.9368 10.8626 65.5165 10.552V13.2698C66.1313 13.4458 66.7567 13.5804 67.3926 13.6736C68.0286 13.7667 68.6063 13.8133 69.1257 13.8133C70.0797 13.8133 70.9012 13.6477 71.5902 13.3164C72.2792 12.9954 72.8727 12.5243 73.3709 11.9031C73.8797 11.2922 74.3726 10.5054 74.8496 9.54249L79.3333 0.45724H75.6287L72.0195 7.78756L68.4298 0.464706L68.4335 0.45724H68.4261H64.7288H64.7215L64.7252 0.464718L64.7143 0.48672L66.5524 4.26889ZM64.1865 1.16496L60.9257 7.78756L57.3324 0.45724H53.6278L58.191 9.77545H59.9082C59.6856 10.1482 59.4683 10.4225 59.2563 10.5986C59.0549 10.7746 58.8217 10.8885 58.5567 10.9402C58.3023 10.992 57.9472 11.0179 57.4914 11.0179C56.866 11.0179 55.8431 10.8626 54.4228 10.552V13.2698C55.0375 13.4458 55.6629 13.5804 56.2989 13.6736C56.9349 13.7667 57.5126 13.8133 58.032 13.8133C58.986 13.8133 59.8075 13.6477 60.4965 13.3164C61.1854 12.9954 61.779 12.5243 62.2772 11.9031C62.786 11.2922 63.2789 10.5054 63.7559 9.54249L66.0242 4.94634L64.1865 1.16496ZM37.8886 0.683638C37.1042 0.352324 36.2615 0.186666 35.3606 0.186666C34.4278 0.186666 33.5692 0.347147 32.7848 0.668107C32.011 0.978714 31.3962 1.47568 30.9404 2.15902V0.497273H27.2835V13.5428H30.9404V8.15373C31.3962 8.83707 32.011 9.33922 32.7848 9.66018C33.5692 9.97078 34.4278 10.1261 35.3606 10.1261C36.2615 10.1261 37.1042 9.96561 37.8886 9.64465C38.673 9.31333 39.3143 8.78012 39.8125 8.04502C40.3213 7.29956 40.5757 6.33668 40.5757 5.15638C40.5757 3.97607 40.3213 3.01837 39.8125 2.28326C39.3143 1.53781 38.673 1.0046 37.8886 0.683638ZM36.0283 6.67835C35.5514 7.00966 34.8253 7.17532 33.8501 7.17532C32.8749 7.17532 32.1435 7.00966 31.6559 6.67835C31.1789 6.34704 30.9404 5.83971 30.9404 5.15638C30.9404 4.47304 31.1789 3.96572 31.6559 3.6344C32.1435 3.30309 32.8749 3.13743 33.8501 3.13743C34.8253 3.13743 35.5514 3.30309 36.0283 3.6344C36.5159 3.96572 36.7597 4.47304 36.7597 5.15638C36.7597 5.83971 36.5159 6.34704 36.0283 6.67835ZM48.555 0.186666C49.9118 0.186666 51.0195 0.347147 51.8781 0.668107C52.7472 0.989067 53.3938 1.50675 53.8178 2.22114C54.2524 2.92518 54.475 3.86736 54.4856 5.04766V7.43157V9.81548H50.8287V8.57305C50.0337 9.04932 49.1539 9.40134 48.1893 9.62912C47.2353 9.85689 46.3079 9.97079 45.4069 9.97079C44.0607 9.97079 42.9901 9.73783 42.1951 9.27192C41.4001 8.80601 41.0026 8.0502 41.0026 7.00449C41.0026 5.84489 41.5273 5.02696 42.5767 4.55069C43.6261 4.06408 44.9299 3.82077 46.4881 3.82077C47.8342 3.82077 49.2811 3.97607 50.8287 4.28668C50.7863 3.68617 50.5107 3.26685 50.0019 3.02872C49.5037 2.79059 48.7935 2.67152 47.8713 2.67152C47.0339 2.67152 46.1807 2.73364 45.3115 2.85789C44.4529 2.97177 43.4459 3.15814 42.2905 3.41698L41.7817 0.978714C44.2091 0.450682 46.4669 0.186666 48.555 0.186666ZM46.663 7.48593C47.5321 7.48593 48.9207 7.33063 50.8287 7.02002V6.30562C49.3447 6.09855 48.078 5.99502 47.0286 5.99502C46.2231 5.99502 45.6507 6.05196 45.3115 6.16585C44.9829 6.27974 44.8186 6.47646 44.8186 6.756C44.8186 7.0252 44.9564 7.21674 45.232 7.33063C45.5076 7.43416 45.9846 7.48593 46.663 7.48593Z" fill="#242424"/>
<path d="M16.1166 2.78068C13.7495 0.467359 11.5484 -0.0936394 10.5765 0.0120777V6.65673C11.5484 6.55101 13.7243 6.53368 16.1166 9.36381C18.5089 12.1939 20.1813 11.8075 21.1531 11.7017V5.05709C20.1813 5.16281 18.4838 5.094 16.1166 2.78068Z" fill="#242424"/>
<path d="M5.54009 5.00074C3.17296 2.68742 0.971819 2.12642 0 2.23214V8.87679C0.971819 8.77107 3.14778 8.75374 5.54009 11.5839C7.93241 14.414 9.60472 14.0275 10.5765 13.9218V7.27715C9.60472 7.38286 7.90722 7.31406 5.54009 5.00074Z" fill="#242424"/>
</svg>
